
      <svg xmlns="http://www.w3.org/2000/svg" version="1.1" width="1920" height="895" style="display: block;"><polygon stroke-linejoin="round" stroke-miterlimit="1" stroke-width="1" points="622,-67.5 78,-67.5 195,-58.5" style="fill:#d0cece;stroke:#d0cece;"></polygon><polygon stroke-linejoin="round" stroke-miterlimit="1" stroke-width="1" points="1972,238.5 1954,-67.5 1833,89.5" style="fill:#dfdede;stroke:#dfdede;"></polygon><polygon stroke-linejoin="round" stroke-miterlimit="1" stroke-width="1" points="2108,606.5 2099,481.5 2058,672.5" style="fill:#e5e3e3;stroke:#e5e3e3;"></polygon><polygon stroke-linejoin="round" stroke-miterlimit="1" stroke-width="1" points="2113,781.5 1972,792.5 2020,893.5" style="fill:#dcdada;stroke:#dcdada;"></polygon><polygon stroke-linejoin="round" stroke-miterlimit="1" stroke-width="1" points="2113,959.5 2020,893.5 1972,959.5" style="fill:#e9e8e8;stroke:#e9e8e8;"></polygon><polygon stroke-linejoin="round" stroke-miterlimit="1" stroke-width="1" points="2113,-12.5 1954,-67.5 1972,238.5" style="fill:#dddcdc;stroke:#dddcdc;"></polygon><polygon stroke-linejoin="round" stroke-miterlimit="1" stroke-width="1" points="2113,720.5 1972,792.5 2113,781.5" style="fill:#e6e4e4;stroke:#e6e4e4;"></polygon><polygon stroke-linejoin="round" stroke-miterlimit="1" stroke-width="1" points="2113,720.5 2058,672.5 1972,792.5" style="fill:#e3e1e1;stroke:#e3e1e1;"></polygon><polygon stroke-linejoin="round" stroke-miterlimit="1" stroke-width="1" points="2113,720.5 2108,606.5 2058,672.5" style="fill:#d0cece;stroke:#d0cece;"></polygon><polygon stroke-linejoin="round" stroke-miterlimit="1" stroke-width="1" points="2113,305.5 2113,-12.5 1972,238.5" style="fill:#d4d3d3;stroke:#d4d3d3;"></polygon><polygon stroke-linejoin="round" stroke-miterlimit="1" stroke-width="1" points="2113,305.5 2087,409.5 2113,406.5" style="fill:#d6d5d5;stroke:#d6d5d5;"></polygon><polygon stroke-linejoin="round" stroke-miterlimit="1" stroke-width="1" points="2113,305.5 1972,238.5 2087,409.5" style="fill:#e1dfdf;stroke:#e1dfdf;"></polygon><polygon stroke-linejoin="round" stroke-miterlimit="1" stroke-width="1" points="2113,-55.5 1954,-67.5 2113,-12.5" style="fill:#d0cece;stroke:#d0cece;"></polygon><polygon stroke-linejoin="round" stroke-miterlimit="1" stroke-width="1" points="2113,-55.5 2113,-67.5 1954,-67.5" style="fill:#ffffff;stroke:#ffffff;"></polygon><polygon stroke-linejoin="round" stroke-miterlimit="1" stroke-width="1" points="2113,919.5 2020,893.5 2113,959.5" style="fill:#ebe9e9;stroke:#ebe9e9;"></polygon><polygon stroke-linejoin="round" stroke-miterlimit="1" stroke-width="1" points="2113,919.5 2113,781.5 2020,893.5" style="fill:#f1efef;stroke:#f1efef;"></polygon><polygon stroke-linejoin="round" stroke-miterlimit="1" stroke-width="1" points="2113,446.5 2113,406.5 2087,409.5" style="fill:#d0cece;stroke:#d0cece;"></polygon><polygon stroke-linejoin="round" stroke-miterlimit="1" stroke-width="1" points="2113,446.5 2087,409.5 2099,481.5" style="fill:#d0cece;stroke:#d0cece;"></polygon><polygon stroke-linejoin="round" stroke-miterlimit="1" stroke-width="1" points="2113,446.5 2099,481.5 2108,606.5" style="fill:#ffffff;stroke:#ffffff;"></polygon><polygon stroke-linejoin="round" stroke-miterlimit="1" stroke-width="1" points="2113,446.5 2108,606.5 2113,720.5" style="fill:#ffffff;stroke:#ffffff;"></polygon><polygon stroke-linejoin="round" stroke-miterlimit="1" stroke-width="1" points="2058,672.5 1808,459.5 1781,540.5" style="fill:#dedddd;stroke:#dedddd;"></polygon><polygon stroke-linejoin="round" stroke-miterlimit="1" stroke-width="1" points="2099,481.5 1808,459.5 2058,672.5" style="fill:#dad9d9;stroke:#dad9d9;"></polygon><polygon stroke-linejoin="round" stroke-miterlimit="1" stroke-width="1" points="2020,893.5 1972,792.5 1964,833.5" style="fill:#f8f6f6;stroke:#f8f6f6;"></polygon><polygon stroke-linejoin="round" stroke-miterlimit="1" stroke-width="1" points="2099,481.5 2087,409.5 1808,459.5" style="fill:#dbd9d9;stroke:#dbd9d9;"></polygon><polygon stroke-linejoin="round" stroke-miterlimit="1" stroke-width="1" points="2087,409.5 1972,238.5 1808,459.5" style="fill:#e3e2e2;stroke:#e3e2e2;"></polygon><polygon stroke-linejoin="round" stroke-miterlimit="1" stroke-width="1" points="2058,672.5 1878,762.5 1972,792.5" style="fill:#e4e2e2;stroke:#e4e2e2;"></polygon><polygon stroke-linejoin="round" stroke-miterlimit="1" stroke-width="1" points="2058,672.5 1781,540.5 1878,762.5" style="fill:#dddbdb;stroke:#dddbdb;"></polygon><polygon stroke-linejoin="round" stroke-miterlimit="1" stroke-width="1" points="2020,893.5 1964,833.5 1972,959.5" style="fill:#d9d7d7;stroke:#d9d7d7;"></polygon><polygon stroke-linejoin="round" stroke-miterlimit="1" stroke-width="1" points="1972,238.5 1833,89.5 1789,137.5" style="fill:#d1cfcf;stroke:#d1cfcf;"></polygon><polygon stroke-linejoin="round" stroke-miterlimit="1" stroke-width="1" points="1972,238.5 1789,137.5 1808,459.5" style="fill:#dedddd;stroke:#dedddd;"></polygon><polygon stroke-linejoin="round" stroke-miterlimit="1" stroke-width="1" points="1972,792.5 1878,762.5 1964,833.5" style="fill:#f2f1f1;stroke:#f2f1f1;"></polygon><polygon stroke-linejoin="round" stroke-miterlimit="1" stroke-width="1" points="1972,959.5 1964,833.5 1799,953.5" style="fill:#e4e2e2;stroke:#e4e2e2;"></polygon><polygon stroke-linejoin="round" stroke-miterlimit="1" stroke-width="1" points="1972,959.5 1799,953.5 1792,959.5" style="fill:#e2e0e0;stroke:#e2e0e0;"></polygon><polygon stroke-linejoin="round" stroke-miterlimit="1" stroke-width="1" points="1964,833.5 1878,762.5 1761,868.5" style="fill:#e5e3e3;stroke:#e5e3e3;"></polygon><polygon stroke-linejoin="round" stroke-miterlimit="1" stroke-width="1" points="1964,833.5 1761,868.5 1799,953.5" style="fill:#e1dfdf;stroke:#e1dfdf;"></polygon><polygon stroke-linejoin="round" stroke-miterlimit="1" stroke-width="1" points="1954,-67.5 1689,-67.5 1833,89.5" style="fill:#d1cfcf;stroke:#d1cfcf;"></polygon><polygon stroke-linejoin="round" stroke-miterlimit="1" stroke-width="1" points="1808,459.5 1789,137.5 1675,143.5" style="fill:#e3e2e2;stroke:#e3e2e2;"></polygon><polygon stroke-linejoin="round" stroke-miterlimit="1" stroke-width="1" points="1878,762.5 1679,583.5 1761,868.5" style="fill:#eae9e9;stroke:#eae9e9;"></polygon><polygon stroke-linejoin="round" stroke-miterlimit="1" stroke-width="1" points="1878,762.5 1725,569.5 1679,583.5" style="fill:#e4e2e2;stroke:#e4e2e2;"></polygon><polygon stroke-linejoin="round" stroke-miterlimit="1" stroke-width="1" points="1878,762.5 1781,540.5 1725,569.5" style="fill:#e1dfdf;stroke:#e1dfdf;"></polygon><polygon stroke-linejoin="round" stroke-miterlimit="1" stroke-width="1" points="1761,868.5 1679,583.5 1546,759.5" style="fill:#e8e6e6;stroke:#e8e6e6;"></polygon><polygon stroke-linejoin="round" stroke-miterlimit="1" stroke-width="1" points="1789,137.5 1689,-67.5 1675,143.5" style="fill:#d4d3d3;stroke:#d4d3d3;"></polygon><polygon stroke-linejoin="round" stroke-miterlimit="1" stroke-width="1" points="1808,459.5 1675,143.5 1458,218.5" style="fill:#dddbdb;stroke:#dddbdb;"></polygon><polygon stroke-linejoin="round" stroke-miterlimit="1" stroke-width="1" points="1833,89.5 1689,-67.5 1789,137.5" style="fill:#d7d5d5;stroke:#d7d5d5;"></polygon><polygon stroke-linejoin="round" stroke-miterlimit="1" stroke-width="1" points="1781,540.5 1729,562.5 1725,569.5" style="fill:#f9f7f7;stroke:#f9f7f7;"></polygon><polygon stroke-linejoin="round" stroke-miterlimit="1" stroke-width="1" points="1792,959.5 1675,937.5 1648,959.5" style="fill:#f6f4f4;stroke:#f6f4f4;"></polygon><polygon stroke-linejoin="round" stroke-miterlimit="1" stroke-width="1" points="1799,953.5 1761,868.5 1792,959.5" style="fill:#d0cece;stroke:#d0cece;"></polygon><polygon stroke-linejoin="round" stroke-miterlimit="1" stroke-width="1" points="1808,459.5 1679,583.5 1729,562.5" style="fill:#d8d6d6;stroke:#d8d6d6;"></polygon><polygon stroke-linejoin="round" stroke-miterlimit="1" stroke-width="1" points="1808,459.5 1458,218.5 1679,583.5" style="fill:#e9e7e7;stroke:#e9e7e7;"></polygon><polygon stroke-linejoin="round" stroke-miterlimit="1" stroke-width="1" points="1808,459.5 1729,562.5 1781,540.5" style="fill:#d9d7d7;stroke:#d9d7d7;"></polygon><polygon stroke-linejoin="round" stroke-miterlimit="1" stroke-width="1" points="1792,959.5 1761,868.5 1675,937.5" style="fill:#d8d7d7;stroke:#d8d7d7;"></polygon><polygon stroke-linejoin="round" stroke-miterlimit="1" stroke-width="1" points="1689,-67.5 1623,-67.5 1675,143.5" style="fill:#e2e1e1;stroke:#e2e1e1;"></polygon><polygon stroke-linejoin="round" stroke-miterlimit="1" stroke-width="1" points="1761,868.5 1546,759.5 1675,937.5" style="fill:#f0eeee;stroke:#f0eeee;"></polygon><polygon stroke-linejoin="round" stroke-miterlimit="1" stroke-width="1" points="1679,583.5 1458,218.5 1454,633.5" style="fill:#ebe9e9;stroke:#ebe9e9;"></polygon><polygon stroke-linejoin="round" stroke-miterlimit="1" stroke-width="1" points="1729,562.5 1679,583.5 1725,569.5" style="fill:#ffffff;stroke:#ffffff;"></polygon><polygon stroke-linejoin="round" stroke-miterlimit="1" stroke-width="1" points="1675,937.5 1546,759.5 1648,959.5" style="fill:#d0cece;stroke:#d0cece;"></polygon><polygon stroke-linejoin="round" stroke-miterlimit="1" stroke-width="1" points="1675,143.5 1623,-67.5 1458,218.5" style="fill:#dbdada;stroke:#dbdada;"></polygon><polygon stroke-linejoin="round" stroke-miterlimit="1" stroke-width="1" points="1679,583.5 1454,633.5 1546,759.5" style="fill:#eeeded;stroke:#eeeded;"></polygon><polygon stroke-linejoin="round" stroke-miterlimit="1" stroke-width="1" points="1458,218.5 1345,258.5 1454,633.5" style="fill:#e9e8e8;stroke:#e9e8e8;"></polygon><polygon stroke-linejoin="round" stroke-miterlimit="1" stroke-width="1" points="1648,959.5 1546,759.5 1458,811.5" style="fill:#eeecec;stroke:#eeecec;"></polygon><polygon stroke-linejoin="round" stroke-miterlimit="1" stroke-width="1" points="1623,-67.5 1303,59.5 1458,218.5" style="fill:#d5d3d3;stroke:#d5d3d3;"></polygon><polygon stroke-linejoin="round" stroke-miterlimit="1" stroke-width="1" points="1648,959.5 1458,811.5 1367,959.5" style="fill:#fcfafa;stroke:#fcfafa;"></polygon><polygon stroke-linejoin="round" stroke-miterlimit="1" stroke-width="1" points="1623,-67.5 1219,-67.5 1303,59.5" style="fill:#e0dede;stroke:#e0dede;"></polygon><polygon stroke-linejoin="round" stroke-miterlimit="1" stroke-width="1" points="1454,633.5 1345,258.5 1290,609.5" style="fill:#e4e2e2;stroke:#e4e2e2;"></polygon><polygon stroke-linejoin="round" stroke-miterlimit="1" stroke-width="1" points="1458,811.5 1399,841.5 1367,959.5" style="fill:#ffffff;stroke:#ffffff;"></polygon><polygon stroke-linejoin="round" stroke-miterlimit="1" stroke-width="1" points="1546,759.5 1454,633.5 1458,811.5" style="fill:#f2f0f0;stroke:#f2f0f0;"></polygon><polygon stroke-linejoin="round" stroke-miterlimit="1" stroke-width="1" points="1345,258.5 1102,470.5 1290,609.5" style="fill:#eceaea;stroke:#eceaea;"></polygon><polygon stroke-linejoin="round" stroke-miterlimit="1" stroke-width="1" points="1454,633.5 1290,609.5 1399,841.5" style="fill:#f8f6f6;stroke:#f8f6f6;"></polygon><polygon stroke-linejoin="round" stroke-miterlimit="1" stroke-width="1" points="1458,811.5 1454,633.5 1399,841.5" style="fill:#ffffff;stroke:#ffffff;"></polygon><polygon stroke-linejoin="round" stroke-miterlimit="1" stroke-width="1" points="1458,218.5 1265,119.5 1345,258.5" style="fill:#e6e4e4;stroke:#e6e4e4;"></polygon><polygon stroke-linejoin="round" stroke-miterlimit="1" stroke-width="1" points="1458,218.5 1303,59.5 1265,119.5" style="fill:#edebeb;stroke:#edebeb;"></polygon><polygon stroke-linejoin="round" stroke-miterlimit="1" stroke-width="1" points="1367,959.5 1017,915.5 961,959.5" style="fill:#ffffff;stroke:#ffffff;"></polygon><polygon stroke-linejoin="round" stroke-miterlimit="1" stroke-width="1" points="1399,841.5 1172,834.5 1367,959.5" style="fill:#ffffff;stroke:#ffffff;"></polygon><polygon stroke-linejoin="round" stroke-miterlimit="1" stroke-width="1" points="1399,841.5 1290,609.5 1172,834.5" style="fill:#ffffff;stroke:#ffffff;"></polygon><polygon stroke-linejoin="round" stroke-miterlimit="1" stroke-width="1" points="1367,959.5 1133,853.5 1017,915.5" style="fill:#ffffff;stroke:#ffffff;"></polygon><polygon stroke-linejoin="round" stroke-miterlimit="1" stroke-width="1" points="1367,959.5 1171,835.5 1133,853.5" style="fill:#ffffff;stroke:#ffffff;"></polygon><polygon stroke-linejoin="round" stroke-miterlimit="1" stroke-width="1" points="1367,959.5 1172,834.5 1171,835.5" style="fill:#d0cece;stroke:#d0cece;"></polygon><polygon stroke-linejoin="round" stroke-miterlimit="1" stroke-width="1" points="1290,609.5 1100,712.5 1172,834.5" style="fill:#fffdfd;stroke:#fffdfd;"></polygon><polygon stroke-linejoin="round" stroke-miterlimit="1" stroke-width="1" points="1303,59.5 1219,-67.5 1249,57.5" style="fill:#d0cece;stroke:#d0cece;"></polygon><polygon stroke-linejoin="round" stroke-miterlimit="1" stroke-width="1" points="1345,258.5 1165,134.5 1055,231.5" style="fill:#e1e0e0;stroke:#e1e0e0;"></polygon><polygon stroke-linejoin="round" stroke-miterlimit="1" stroke-width="1" points="1345,258.5 1055,231.5 1102,470.5" style="fill:#e5e4e4;stroke:#e5e4e4;"></polygon><polygon stroke-linejoin="round" stroke-miterlimit="1" stroke-width="1" points="1345,258.5 1265,119.5 1165,134.5" style="fill:#e3e2e2;stroke:#e3e2e2;"></polygon><polygon stroke-linejoin="round" stroke-miterlimit="1" stroke-width="1" points="1290,609.5 1102,470.5 1115,580.5" style="fill:#e2e1e1;stroke:#e2e1e1;"></polygon><polygon stroke-linejoin="round" stroke-miterlimit="1" stroke-width="1" points="1303,59.5 1249,57.5 1265,119.5" style="fill:#eae9e9;stroke:#eae9e9;"></polygon><polygon stroke-linejoin="round" stroke-miterlimit="1" stroke-width="1" points="1290,609.5 1115,580.5 1100,712.5" style="fill:#f1f0f0;stroke:#f1f0f0;"></polygon><polygon stroke-linejoin="round" stroke-miterlimit="1" stroke-width="1" points="1265,119.5 1249,57.5 1165,134.5" style="fill:#d8d7d7;stroke:#d8d7d7;"></polygon><polygon stroke-linejoin="round" stroke-miterlimit="1" stroke-width="1" points="1249,57.5 1219,-67.5 1165,134.5" style="fill:#e1dfdf;stroke:#e1dfdf;"></polygon><polygon stroke-linejoin="round" stroke-miterlimit="1" stroke-width="1" points="1219,-67.5 971,-67.5 1165,134.5" style="fill:#d7d5d5;stroke:#d7d5d5;"></polygon><polygon stroke-linejoin="round" stroke-miterlimit="1" stroke-width="1" points="1165,134.5 871,57.5 1055,231.5" style="fill:#d7d5d5;stroke:#d7d5d5;"></polygon><polygon stroke-linejoin="round" stroke-miterlimit="1" stroke-width="1" points="1165,134.5 971,-67.5 871,57.5" style="fill:#e4e3e3;stroke:#e4e3e3;"></polygon><polygon stroke-linejoin="round" stroke-miterlimit="1" stroke-width="1" points="1172,834.5 1133,853.5 1171,835.5" style="fill:#d0cece;stroke:#d0cece;"></polygon><polygon stroke-linejoin="round" stroke-miterlimit="1" stroke-width="1" points="1172,834.5 1100,712.5 1133,853.5" style="fill:#fffefe;stroke:#fffefe;"></polygon><polygon stroke-linejoin="round" stroke-miterlimit="1" stroke-width="1" points="1102,470.5 1055,231.5 937,432.5" style="fill:#e4e2e2;stroke:#e4e2e2;"></polygon><polygon stroke-linejoin="round" stroke-miterlimit="1" stroke-width="1" points="1055,231.5 902,325.5 937,432.5" style="fill:#e8e7e7;stroke:#e8e7e7;"></polygon><polygon stroke-linejoin="round" stroke-miterlimit="1" stroke-width="1" points="1115,580.5 1008,695.5 1100,712.5" style="fill:#ecebeb;stroke:#ecebeb;"></polygon><polygon stroke-linejoin="round" stroke-miterlimit="1" stroke-width="1" points="1133,853.5 1100,712.5 1008,695.5" style="fill:#f2f1f1;stroke:#f2f1f1;"></polygon><polygon stroke-linejoin="round" stroke-miterlimit="1" stroke-width="1" points="1133,853.5 1008,695.5 1017,915.5" style="fill:#ffffff;stroke:#ffffff;"></polygon><polygon stroke-linejoin="round" stroke-miterlimit="1" stroke-width="1" points="1115,580.5 1102,470.5 918,561.5" style="fill:#ebeaea;stroke:#ebeaea;"></polygon><polygon stroke-linejoin="round" stroke-miterlimit="1" stroke-width="1" points="1115,580.5 918,561.5 1008,695.5" style="fill:#f1efef;stroke:#f1efef;"></polygon><polygon stroke-linejoin="round" stroke-miterlimit="1" stroke-width="1" points="1017,915.5 1008,695.5 891,809.5" style="fill:#f2f1f1;stroke:#f2f1f1;"></polygon><polygon stroke-linejoin="round" stroke-miterlimit="1" stroke-width="1" points="1102,470.5 937,432.5 918,561.5" style="fill:#d7d6d6;stroke:#d7d6d6;"></polygon><polygon stroke-linejoin="round" stroke-miterlimit="1" stroke-width="1" points="971,-67.5 961,-67.5 871,57.5" style="fill:#d0cece;stroke:#d0cece;"></polygon><polygon stroke-linejoin="round" stroke-miterlimit="1" stroke-width="1" points="1008,695.5 909,736.5 891,809.5" style="fill:#ffffff;stroke:#ffffff;"></polygon><polygon stroke-linejoin="round" stroke-miterlimit="1" stroke-width="1" points="1055,231.5 833,250.5 902,325.5" style="fill:#d4d2d2;stroke:#d4d2d2;"></polygon><polygon stroke-linejoin="round" stroke-miterlimit="1" stroke-width="1" points="1055,231.5 871,57.5 833,250.5" style="fill:#dddbdb;stroke:#dddbdb;"></polygon><polygon stroke-linejoin="round" stroke-miterlimit="1" stroke-width="1" points="961,959.5 832,894.5 655,959.5" style="fill:#ebe9e9;stroke:#ebe9e9;"></polygon><polygon stroke-linejoin="round" stroke-miterlimit="1" stroke-width="1" points="1008,695.5 918,561.5 904,731.5" style="fill:#e3e1e1;stroke:#e3e1e1;"></polygon><polygon stroke-linejoin="round" stroke-miterlimit="1" stroke-width="1" points="1017,915.5 891,809.5 961,959.5" style="fill:#faf8f8;stroke:#faf8f8;"></polygon><polygon stroke-linejoin="round" stroke-miterlimit="1" stroke-width="1" points="1008,695.5 904,731.5 909,736.5" style="fill:#fbfafa;stroke:#fbfafa;"></polygon><polygon stroke-linejoin="round" stroke-miterlimit="1" stroke-width="1" points="937,432.5 902,325.5 869,350.5" style="fill:#e1e0e0;stroke:#e1e0e0;"></polygon><polygon stroke-linejoin="round" stroke-miterlimit="1" stroke-width="1" points="961,959.5 891,809.5 832,894.5" style="fill:#eae8e8;stroke:#eae8e8;"></polygon><polygon stroke-linejoin="round" stroke-miterlimit="1" stroke-width="1" points="918,561.5 852,739.5 904,731.5" style="fill:#dad8d8;stroke:#dad8d8;"></polygon><polygon stroke-linejoin="round" stroke-miterlimit="1" stroke-width="1" points="961,-67.5 622,-67.5 871,57.5" style="fill:#dad8d8;stroke:#dad8d8;"></polygon><polygon stroke-linejoin="round" stroke-miterlimit="1" stroke-width="1" points="871,57.5 765,113.5 833,250.5" style="fill:#dcdbdb;stroke:#dcdbdb;"></polygon><polygon stroke-linejoin="round" stroke-miterlimit="1" stroke-width="1" points="937,432.5 661,471.5 918,561.5" style="fill:#efeded;stroke:#efeded;"></polygon><polygon stroke-linejoin="round" stroke-miterlimit="1" stroke-width="1" points="937,432.5 869,350.5 661,471.5" style="fill:#edecec;stroke:#edecec;"></polygon><polygon stroke-linejoin="round" stroke-miterlimit="1" stroke-width="1" points="909,736.5 852,739.5 891,809.5" style="fill:#fbfafa;stroke:#fbfafa;"></polygon><polygon stroke-linejoin="round" stroke-miterlimit="1" stroke-width="1" points="918,561.5 661,471.5 852,739.5" style="fill:#e5e3e3;stroke:#e5e3e3;"></polygon><polygon stroke-linejoin="round" stroke-miterlimit="1" stroke-width="1" points="902,325.5 833,250.5 869,350.5" style="fill:#d5d4d4;stroke:#d5d4d4;"></polygon><polygon stroke-linejoin="round" stroke-miterlimit="1" stroke-width="1" points="909,736.5 904,731.5 852,739.5" style="fill:#ffffff;stroke:#ffffff;"></polygon><polygon stroke-linejoin="round" stroke-miterlimit="1" stroke-width="1" points="871,57.5 622,-67.5 765,113.5" style="fill:#e0dede;stroke:#e0dede;"></polygon><polygon stroke-linejoin="round" stroke-miterlimit="1" stroke-width="1" points="891,809.5 852,739.5 832,894.5" style="fill:#ffffff;stroke:#ffffff;"></polygon><polygon stroke-linejoin="round" stroke-miterlimit="1" stroke-width="1" points="869,350.5 833,250.5 731,235.5" style="fill:#ebe9e9;stroke:#ebe9e9;"></polygon><polygon stroke-linejoin="round" stroke-miterlimit="1" stroke-width="1" points="869,350.5 731,235.5 661,471.5" style="fill:#e9e7e7;stroke:#e9e7e7;"></polygon><polygon stroke-linejoin="round" stroke-miterlimit="1" stroke-width="1" points="833,250.5 765,113.5 731,235.5" style="fill:#dedcdc;stroke:#dedcdc;"></polygon><polygon stroke-linejoin="round" stroke-miterlimit="1" stroke-width="1" points="852,739.5 661,471.5 479,588.5" style="fill:#e6e4e4;stroke:#e6e4e4;"></polygon><polygon stroke-linejoin="round" stroke-miterlimit="1" stroke-width="1" points="852,739.5 655,959.5 832,894.5" style="fill:#efeeee;stroke:#efeeee;"></polygon><polygon stroke-linejoin="round" stroke-miterlimit="1" stroke-width="1" points="852,739.5 479,588.5 655,959.5" style="fill:#e3e2e2;stroke:#e3e2e2;"></polygon><polygon stroke-linejoin="round" stroke-miterlimit="1" stroke-width="1" points="655,959.5 479,588.5 418,634.5" style="fill:#dcdada;stroke:#dcdada;"></polygon><polygon stroke-linejoin="round" stroke-miterlimit="1" stroke-width="1" points="731,235.5 580,399.5 661,471.5" style="fill:#dcdbdb;stroke:#dcdbdb;"></polygon><polygon stroke-linejoin="round" stroke-miterlimit="1" stroke-width="1" points="765,113.5 616,175.5 731,235.5" style="fill:#e5e3e3;stroke:#e5e3e3;"></polygon><polygon stroke-linejoin="round" stroke-miterlimit="1" stroke-width="1" points="765,113.5 622,-67.5 616,175.5" style="fill:#dddbdb;stroke:#dddbdb;"></polygon><polygon stroke-linejoin="round" stroke-miterlimit="1" stroke-width="1" points="731,235.5 616,175.5 580,399.5" style="fill:#dddbdb;stroke:#dddbdb;"></polygon><polygon stroke-linejoin="round" stroke-miterlimit="1" stroke-width="1" points="655,959.5 418,634.5 276,804.5" style="fill:#e0dfdf;stroke:#e0dfdf;"></polygon><polygon stroke-linejoin="round" stroke-miterlimit="1" stroke-width="1" points="661,471.5 580,399.5 584,458.5" style="fill:#e7e5e5;stroke:#e7e5e5;"></polygon><polygon stroke-linejoin="round" stroke-miterlimit="1" stroke-width="1" points="661,471.5 584,458.5 479,588.5" style="fill:#e9e7e7;stroke:#e9e7e7;"></polygon><polygon stroke-linejoin="round" stroke-miterlimit="1" stroke-width="1" points="655,959.5 276,804.5 189,959.5" style="fill:#e1dfdf;stroke:#e1dfdf;"></polygon><polygon stroke-linejoin="round" stroke-miterlimit="1" stroke-width="1" points="616,175.5 218,325.5 580,399.5" style="fill:#e0dede;stroke:#e0dede;"></polygon><polygon stroke-linejoin="round" stroke-miterlimit="1" stroke-width="1" points="616,175.5 195,-58.5 218,325.5" style="fill:#d8d7d7;stroke:#d8d7d7;"></polygon><polygon stroke-linejoin="round" stroke-miterlimit="1" stroke-width="1" points="622,-67.5 195,-58.5 616,175.5" style="fill:#dbd9d9;stroke:#dbd9d9;"></polygon><polygon stroke-linejoin="round" stroke-miterlimit="1" stroke-width="1" points="580,399.5 218,325.5 372,494.5" style="fill:#dddbdb;stroke:#dddbdb;"></polygon><polygon stroke-linejoin="round" stroke-miterlimit="1" stroke-width="1" points="584,458.5 580,399.5 372,494.5" style="fill:#f9f8f8;stroke:#f9f8f8;"></polygon><polygon stroke-linejoin="round" stroke-miterlimit="1" stroke-width="1" points="584,458.5 372,494.5 479,588.5" style="fill:#dddcdc;stroke:#dddcdc;"></polygon><polygon stroke-linejoin="round" stroke-miterlimit="1" stroke-width="1" points="218,325.5 195,-58.5 159,279.5" style="fill:#d0cece;stroke:#d0cece;"></polygon><polygon stroke-linejoin="round" stroke-miterlimit="1" stroke-width="1" points="479,588.5 372,494.5 418,634.5" style="fill:#d8d7d7;stroke:#d8d7d7;"></polygon><polygon stroke-linejoin="round" stroke-miterlimit="1" stroke-width="1" points="195,-58.5 96,217.5 159,279.5" style="fill:#e2e1e1;stroke:#e2e1e1;"></polygon><polygon stroke-linejoin="round" stroke-miterlimit="1" stroke-width="1" points="418,634.5 372,494.5 138,593.5" style="fill:#d8d7d7;stroke:#d8d7d7;"></polygon><polygon stroke-linejoin="round" stroke-miterlimit="1" stroke-width="1" points="418,634.5 138,593.5 232,766.5" style="fill:#dedcdc;stroke:#dedcdc;"></polygon><polygon stroke-linejoin="round" stroke-miterlimit="1" stroke-width="1" points="418,634.5 232,766.5 276,804.5" style="fill:#d0cece;stroke:#d0cece;"></polygon><polygon stroke-linejoin="round" stroke-miterlimit="1" stroke-width="1" points="372,494.5 218,325.5 138,593.5" style="fill:#dedcdc;stroke:#dedcdc;"></polygon><polygon stroke-linejoin="round" stroke-miterlimit="1" stroke-width="1" points="195,-58.5 38,137.5 96,217.5" style="fill:#eae8e8;stroke:#eae8e8;"></polygon><polygon stroke-linejoin="round" stroke-miterlimit="1" stroke-width="1" points="276,804.5 168,831.5 189,959.5" style="fill:#d6d4d4;stroke:#d6d4d4;"></polygon><polygon stroke-linejoin="round" stroke-miterlimit="1" stroke-width="1" points="276,804.5 232,766.5 176,804.5" style="fill:#d4d2d2;stroke:#d4d2d2;"></polygon><polygon stroke-linejoin="round" stroke-miterlimit="1" stroke-width="1" points="276,804.5 176,804.5 168,831.5" style="fill:#f2f1f1;stroke:#f2f1f1;"></polygon><polygon stroke-linejoin="round" stroke-miterlimit="1" stroke-width="1" points="159,279.5 -88,526.5 138,593.5" style="fill:#d2d1d1;stroke:#d2d1d1;"></polygon><polygon stroke-linejoin="round" stroke-miterlimit="1" stroke-width="1" points="176,804.5 138,593.5 45,740.5" style="fill:#d1cfcf;stroke:#d1cfcf;"></polygon><polygon stroke-linejoin="round" stroke-miterlimit="1" stroke-width="1" points="189,959.5 168,831.5 111,884.5" style="fill:#dddbdb;stroke:#dddbdb;"></polygon><polygon stroke-linejoin="round" stroke-miterlimit="1" stroke-width="1" points="195,-58.5 78,-67.5 38,137.5" style="fill:#d0cece;stroke:#d0cece;"></polygon><polygon stroke-linejoin="round" stroke-miterlimit="1" stroke-width="1" points="218,325.5 159,279.5 138,593.5" style="fill:#e7e5e5;stroke:#e7e5e5;"></polygon><polygon stroke-linejoin="round" stroke-miterlimit="1" stroke-width="1" points="232,766.5 138,593.5 176,804.5" style="fill:#d0cece;stroke:#d0cece;"></polygon><polygon stroke-linejoin="round" stroke-miterlimit="1" stroke-width="1" points="189,959.5 111,884.5 27,959.5" style="fill:#dfdede;stroke:#dfdede;"></polygon><polygon stroke-linejoin="round" stroke-miterlimit="1" stroke-width="1" points="96,217.5 -136,257.5 -88,526.5" style="fill:#d6d4d4;stroke:#d6d4d4;"></polygon><polygon stroke-linejoin="round" stroke-miterlimit="1" stroke-width="1" points="159,279.5 96,217.5 -88,526.5" style="fill:#e2e0e0;stroke:#e2e0e0;"></polygon><polygon stroke-linejoin="round" stroke-miterlimit="1" stroke-width="1" points="176,804.5 45,740.5 168,831.5" style="fill:#d0cece;stroke:#d0cece;"></polygon><polygon stroke-linejoin="round" stroke-miterlimit="1" stroke-width="1" points="168,831.5 45,740.5 111,884.5" style="fill:#d7d6d6;stroke:#d7d6d6;"></polygon><polygon stroke-linejoin="round" stroke-miterlimit="1" stroke-width="1" points="138,593.5 -88,526.5 45,740.5" style="fill:#d1cfcf;stroke:#d1cfcf;"></polygon><polygon stroke-linejoin="round" stroke-miterlimit="1" stroke-width="1" points="78,-67.5 -112,90.5 38,137.5" style="fill:#dedcdc;stroke:#dedcdc;"></polygon><polygon stroke-linejoin="round" stroke-miterlimit="1" stroke-width="1" points="111,884.5 -22,921.5 27,959.5" style="fill:#d2d1d1;stroke:#d2d1d1;"></polygon><polygon stroke-linejoin="round" stroke-miterlimit="1" stroke-width="1" points="111,884.5 45,740.5 -52,798.5" style="fill:#dad8d8;stroke:#dad8d8;"></polygon><polygon stroke-linejoin="round" stroke-miterlimit="1" stroke-width="1" points="111,884.5 -52,798.5 -22,921.5" style="fill:#e0dede;stroke:#e0dede;"></polygon><polygon stroke-linejoin="round" stroke-miterlimit="1" stroke-width="1" points="96,217.5 38,137.5 -136,257.5" style="fill:#dcdbdb;stroke:#dcdbdb;"></polygon><polygon stroke-linejoin="round" stroke-miterlimit="1" stroke-width="1" points="-88,526.5 -136,257.5 -191,446.5" style="fill:#dedddd;stroke:#dedddd;"></polygon><polygon stroke-linejoin="round" stroke-miterlimit="1" stroke-width="1" points="45,740.5 -88,526.5 -131,740.5" style="fill:#d5d4d4;stroke:#d5d4d4;"></polygon><polygon stroke-linejoin="round" stroke-miterlimit="1" stroke-width="1" points="78,-67.5 -191,-40.5 -112,90.5" style="fill:#d0cece;stroke:#d0cece;"></polygon><polygon stroke-linejoin="round" stroke-miterlimit="1" stroke-width="1" points="78,-67.5 -191,-67.5 -191,-40.5" style="fill:#dedcdc;stroke:#dedcdc;"></polygon><polygon stroke-linejoin="round" stroke-miterlimit="1" stroke-width="1" points="-112,90.5 -191,-40.5 -191,-7.5" style="fill:#dfdede;stroke:#dfdede;"></polygon><polygon stroke-linejoin="round" stroke-miterlimit="1" stroke-width="1" points="27,959.5 -22,921.5 -191,959.5" style="fill:#d4d2d2;stroke:#d4d2d2;"></polygon><polygon stroke-linejoin="round" stroke-miterlimit="1" stroke-width="1" points="38,137.5 -112,90.5 -136,257.5" style="fill:#dfdede;stroke:#dfdede;"></polygon><polygon stroke-linejoin="round" stroke-miterlimit="1" stroke-width="1" points="45,740.5 -131,740.5 -52,798.5" style="fill:#dedddd;stroke:#dedddd;"></polygon><polygon stroke-linejoin="round" stroke-miterlimit="1" stroke-width="1" points="-22,921.5 -52,798.5 -92,874.5" style="fill:#eae8e8;stroke:#eae8e8;"></polygon><polygon stroke-linejoin="round" stroke-miterlimit="1" stroke-width="1" points="-88,526.5 -191,698.5 -131,740.5" style="fill:#e4e3e3;stroke:#e4e3e3;"></polygon><polygon stroke-linejoin="round" stroke-miterlimit="1" stroke-width="1" points="-22,921.5 -92,874.5 -191,959.5" style="fill:#dbd9d9;stroke:#dbd9d9;"></polygon><polygon stroke-linejoin="round" stroke-miterlimit="1" stroke-width="1" points="-88,526.5 -191,544.5 -191,698.5" style="fill:#d8d6d6;stroke:#d8d6d6;"></polygon><polygon stroke-linejoin="round" stroke-miterlimit="1" stroke-width="1" points="-52,798.5 -191,803.5 -92,874.5" style="fill:#e0dede;stroke:#e0dede;"></polygon><polygon stroke-linejoin="round" stroke-miterlimit="1" stroke-width="1" points="-52,798.5 -131,740.5 -191,803.5" style="fill:#dcdada;stroke:#dcdada;"></polygon><polygon stroke-linejoin="round" stroke-miterlimit="1" stroke-width="1" points="-88,526.5 -191,446.5 -172,516.5" style="fill:#d0cece;stroke:#d0cece;"></polygon><polygon stroke-linejoin="round" stroke-miterlimit="1" stroke-width="1" points="-88,526.5 -172,516.5 -191,544.5" style="fill:#d7d5d5;stroke:#d7d5d5;"></polygon><polygon stroke-linejoin="round" stroke-miterlimit="1" stroke-width="1" points="-92,874.5 -191,803.5 -191,959.5" style="fill:#d0cfcf;stroke:#d0cfcf;"></polygon><polygon stroke-linejoin="round" stroke-miterlimit="1" stroke-width="1" points="-131,740.5 -191,751.5 -191,803.5" style="fill:#dcdada;stroke:#dcdada;"></polygon><polygon stroke-linejoin="round" stroke-miterlimit="1" stroke-width="1" points="-131,740.5 -191,698.5 -191,714.5" style="fill:#e5e3e3;stroke:#e5e3e3;"></polygon><polygon stroke-linejoin="round" stroke-miterlimit="1" stroke-width="1" points="-112,90.5 -191,-7.5 -136,257.5" style="fill:#ecebeb;stroke:#ecebeb;"></polygon><polygon stroke-linejoin="round" stroke-miterlimit="1" stroke-width="1" points="-131,740.5 -191,714.5 -191,751.5" style="fill:#d0cece;stroke:#d0cece;"></polygon><polygon stroke-linejoin="round" stroke-miterlimit="1" stroke-width="1" points="-136,257.5 -191,-7.5 -191,446.5" style="fill:#d0cece;stroke:#d0cece;"></polygon><polygon stroke-linejoin="round" stroke-miterlimit="1" stroke-width="1" points="-172,516.5 -191,446.5 -191,544.5" style="fill:#faf9f9;stroke:#faf9f9;"></polygon></svg>